<?xml version="1.0"?>
<svg xmlns="http://www.w3.org/2000/svg" xmlns:xlink="http://www.w3.org/1999/xlink" xmlns:svgjs="http://svgjs.com/svgjs" version="1.1" width="512" height="512" x="0" y="0" viewBox="0 0 512.008 512.008" style="enable-background:new 0 0 512 512" xml:space="preserve" class=""><g><g xmlns="http://www.w3.org/2000/svg"><g><path d="m216.003 406.003h80c16.542 0 30-13.458 30-30s-13.458-30-30-30h-80c-16.542 0-30 13.458-30 30s13.458 30 30 30zm0-40h80c5.514 0 10 4.486 10 10s-4.486 10-10 10h-80c-5.514 0-10-4.486-10-10s4.486-10 10-10z" fill="#00bcd4" data-original="#000000" style="" class=""/><path d="m505.584 186.665c-5.152-1.976-10.938.602-12.917 5.759l-43.54 113.579h-32.763l7.537-28.127c12.571-5.313 22.2-16.18 25.762-29.476 3.067-11.447 1.476-23.436-4.482-33.756-2.963-5.132-6.824-9.533-11.365-13.04 20.776-63.217 17.36-109.796-9.492-125.299-11.912-6.878-33.224-10.246-67.104 12.758-22.68 15.398-46.52 39.509-69.207 69.942l-14.28-3.826c-19.639-5.263-39.784 3.535-49.733 20.186-12.855-40.71-30.014-77.088-49.244-104.059-24.526-34.398-50.357-50.044-72.743-44.044-22.726 6.09-37.335 33.199-41.136 76.334-.485 5.502 3.582 10.354 9.083 10.84 5.509.469 10.354-3.583 10.839-9.084 2.921-33.156 12.787-55.126 26.39-58.771 13.337-3.581 32.51 10.01 51.282 36.337 21.252 29.808 39.923 72.223 52.573 119.433 4.03 15.04 7.314 30.147 9.789 44.944l-15.731 58.709h-84.007c-10.267-22.196-18.994-46.585-25.963-72.595-3.667-13.688-6.736-27.485-9.122-41.01-.959-5.439-6.139-9.07-11.585-8.111-5.439.959-9.07 6.146-8.111 11.584 2.486 14.096 5.682 28.467 9.5 42.713 6.399 23.882 14.235 46.492 23.357 67.419h-36.292l-43.539-113.581c-1.977-5.158-7.761-7.735-12.917-5.759-5.157 1.978-7.735 7.761-5.758 12.917l45.338 118.271v148.149c0 11.027 8.972 19.999 20 19.999h380c11.028 0 20-8.972 20-19.999v-148.147l45.339-118.273c1.977-5.156-.601-10.939-5.758-12.916zm-91.26-93.04c16.739 9.665 17.015 49.958 1.192 99.544l-106.636-28.574c45.883-59.28 87.939-81.074 105.444-70.97zm-166.846 131.507c.922-3.439-.055-7.109-2.564-9.636-6.178-6.219-8.621-15.288-6.376-23.668 1.685-6.287 5.749-11.561 11.442-14.848 5.692-3.285 12.291-4.17 18.579-2.484l144.454 38.706c6.287 1.685 11.561 5.748 14.848 11.441 3.287 5.694 4.169 12.292 2.484 18.58-2.245 8.379-8.896 15.011-17.355 17.309-3.437.933-6.117 3.623-7.039 7.063l-10.291 38.407h-169.85zm198.526 240.87-380 .001v-140h380z" fill="#00bcd4" data-original="#000000" style="" class=""/><path d="m175.132 201.619-49.262 13.2c-5.334 1.43-8.5 6.913-7.071 12.247 1.197 4.469 5.237 7.415 9.653 7.415.856 0 1.728-.111 2.595-.344l49.262-13.2c5.334-1.43 8.5-6.913 7.071-12.247-1.43-5.336-6.914-8.504-12.248-7.071z" fill="#00bcd4" data-original="#000000" style="" class=""/><path d="m154.549 148.948-37.19 9.965c-5.334 1.43-8.5 6.913-7.071 12.247 1.197 4.468 5.237 7.415 9.653 7.415.856 0 1.728-.111 2.595-.344l37.19-9.965c5.334-1.43 8.5-6.913 7.071-12.247-1.43-5.334-6.911-8.501-12.248-7.071z" fill="#00bcd4" data-original="#000000" style="" class=""/><path d="m146.453 267.491c-5.334 1.43-8.5 6.913-7.071 12.247 1.197 4.468 5.237 7.415 9.653 7.415.856 0 1.728-.111 2.595-.344l37.189-9.965c5.334-1.43 8.5-6.913 7.071-12.247-1.43-5.335-6.915-8.502-12.248-7.071z" fill="#00bcd4" data-original="#000000" style="" class=""/><path d="m135.088 102.397-24.15 6.471c-5.335 1.43-8.501 6.912-7.071 12.247 1.197 4.468 5.237 7.415 9.653 7.415.856 0 1.728-.111 2.594-.344l24.15-6.471c5.335-1.43 8.501-6.912 7.071-12.247-1.428-5.335-6.914-8.503-12.247-7.071z" fill="#00bcd4" data-original="#000000" style="" class=""/><path d="m394.583 152.82-21.652-12.501c-4.785-2.762-10.899-1.123-13.66 3.66-2.762 4.783-1.123 10.898 3.66 13.66l21.652 12.501c1.575.909 3.294 1.342 4.99 1.342 3.456 0 6.818-1.794 8.67-5.002 2.762-4.783 1.123-10.898-3.66-13.66z" fill="#00bcd4" data-original="#000000" style="" class=""/><path d="m316.653 215.208h-.007c-5.522 0-9.997 4.478-9.997 10s4.481 10 10.004 10 10-4.478 10-10-4.477-10-10-10z" fill="#00bcd4" data-original="#000000" style="" class=""/><path d="m264.153 267.708h-.008c-5.522 0-9.996 4.478-9.996 10s4.481 10 10.004 10 10-4.478 10-10-4.477-10-10-10z" fill="#00bcd4" data-original="#000000" style="" class=""/><path d="m367.153 252.708h-.007c-5.522 0-9.997 4.478-9.997 10s4.481 10 10.004 10 10-4.478 10-10-4.477-10-10-10z" fill="#00bcd4" data-original="#000000" style="" class=""/><path d="m80.655 149.471c0-5.522-4.477-10-10-10h-.007c-5.523 0-9.996 4.478-9.996 10s4.48 10 10.003 10 10-4.477 10-10z" fill="#00bcd4" data-original="#000000" style="" class=""/></g></g></g></svg>
