<?xml version="1.0"?>
<svg xmlns="http://www.w3.org/2000/svg" xmlns:xlink="http://www.w3.org/1999/xlink" xmlns:svgjs="http://svgjs.com/svgjs" version="1.1" width="512" height="512" x="0" y="0" viewBox="0 0 512 512" style="enable-background:new 0 0 512 512" xml:space="preserve" class=""><g><g xmlns="http://www.w3.org/2000/svg"><path d="m498.398 165.523h-32.653v-20.321h10.906c6.865 0 12.451-5.586 12.451-12.451v-89.571c0-8.428-6.857-15.285-15.285-15.285h-127.224c-4.143 0-7.5 3.358-7.5 7.5s3.357 7.5 7.5 7.5h127.224c.157 0 .285.127.285.285v87.022h-181.891v-87.022c0-.157.128-.285.285-.285h23.028c4.143 0 7.5-3.358 7.5-7.5s-3.357-7.5-7.5-7.5h-23.028c-8.429 0-15.285 6.856-15.285 15.285v89.571c0 6.866 5.586 12.451 12.451 12.451h10.907v20.321h-32.653c-7.5 0-13.603 6.102-13.603 13.603v66.31c-13.971-12.814-29.924-22.76-47.125-29.519v-34.427c0-7.607-5.638-13.904-12.95-14.98v-62.827c0-11.253-9.155-20.408-20.409-20.408h-38.452c-11.253 0-20.408 9.155-20.408 20.408v62.72c-7.688.726-13.724 7.212-13.724 15.087v32.613c-20.936 7.384-40.147 19.385-56.374 35.499-28.935 28.731-44.871 67.011-44.871 107.787 0 47.696 21.758 91.694 59.695 120.712 5.062 3.872 11.388 6.004 17.814 6.004h148.777c6.437 0 12.802-2.162 17.925-6.086 3.555-2.724 6.985-5.613 10.286-8.645 1.158 8.309 8.29 14.731 16.911 14.731h140.948c4.143 0 7.5-3.358 7.5-7.5s-3.357-7.5-7.5-7.5h-140.947c-1.155 0-2.095-.94-2.095-2.096v-13.293c7.247-8.822 13.512-18.439 18.59-28.618 10.781-21.611 16.126-44.906 15.887-69.238-.344-34.907-12.54-68.051-34.629-94.802.1-.488.152-.993.152-1.51v-79.025h62.8v138.178l-1.936 1.936c-2.507 2.506-3.887 5.838-3.887 9.382s1.38 6.876 3.886 9.382l43.598 43.599c2.506 2.506 5.838 3.887 9.382 3.887s6.876-1.38 9.382-3.886l43.599-43.599c2.506-2.506 3.886-5.837 3.886-9.382 0-3.544-1.38-6.876-3.886-9.381l-1.938-1.938v-138.178h62.8v286.487c0 1.155-.94 2.095-2.096 2.095h-51.479c-4.143 0-7.5 3.358-7.5 7.5s3.357 7.5 7.5 7.5h51.479c9.427 0 17.096-7.669 17.096-17.095v-287.884c0-7.501-6.102-13.603-13.602-13.603zm-382.698 303.582c-17.22-26.015-27.423-67.376-27.423-111.716 0-74.206 29.135-136.897 63.621-136.898h.002c34.486.001 63.621 62.692 63.621 136.898 0 44.341-10.202 85.702-27.422 111.716zm19.678-370.831h38.452c2.982 0 5.409 2.426 5.409 5.408v62.647h-49.269v-62.647c0-2.981 2.426-5.408 5.408-5.408zm-19.132 83.215c0-.088.071-.159.159-.159h75.624c.088 0 .159.071.159.159v29.434c-12.636-3.482-25.788-5.335-39.197-5.429-12.542-.087-24.858 1.34-36.746 4.186v-28.191zm-47.438 284.699c-34.196-26.158-53.808-65.813-53.808-108.799 0-36.749 14.362-71.249 40.44-97.145 15.954-15.843 35.104-27.269 55.985-33.699-23.012 26.211-38.148 74.471-38.148 130.844 0 42.794 9.172 83.326 24.918 111.716h-20.686c-3.151 0-6.241-1.036-8.701-2.917zm166.279-.076c-2.519 1.93-5.645 2.993-8.802 2.993h-20.682c15.745-28.39 24.917-68.921 24.917-111.716 0-56.25-15.07-104.425-37.998-130.675 55.119 17.327 95.672 68.861 96.268 129.293.429 43.492-19.145 83.623-53.703 110.105zm80.483-320.91h135.175v20.321h-135.175zm67.587 225.967-41.148-41.149 41.148-41.149 41.148 41.149zm36.043-67.468-26.661-26.661c-2.506-2.506-5.838-3.887-9.382-3.887s-6.876 1.38-9.382 3.886l-26.661 26.662v-123.178h72.086z" fill="#00bcd4" data-original="#000000" style=""/><ellipse cx="154.604" cy="129.915" rx="7.767" ry="7.767" transform="matrix(.122 -.993 .993 .122 6.772 267.487)" fill="#00bcd4" data-original="#000000" style=""/><path d="m426.7 414.862h-87.086c-4.143 0-7.5 3.358-7.5 7.5s3.357 7.5 7.5 7.5h87.086c4.143 0 7.5-3.358 7.5-7.5s-3.358-7.5-7.5-7.5z" fill="#00bcd4" data-original="#000000" style=""/></g></g></svg>
